<?xml version="1.0" encoding="utf-8"?>
<!-- Generator: Adobe Illustrator 27.5.0, SVG Export Plug-In . SVG Version: 6.00 Build 0)  -->
<svg version="1.1" id="Layer_1" xmlns="http://www.w3.org/2000/svg" xmlns:xlink="http://www.w3.org/1999/xlink" x="0px" y="0px"
	 viewBox="0 0 4000 7000" style="enable-background:new 0 0 4000 7000;" xml:space="preserve">
<g>
	<g>
		<defs>
			<rect id="SVGID_1_" x="2.082" y="1.46" width="3999.178" height="6998.54"/>
		</defs>
		<clipPath id="SVGID_00000012460033097036802190000000732983630551545216_">
			<use xlink:href="#SVGID_1_"  style="overflow:visible;"/>
		</clipPath>
		
			<linearGradient id="SVGID_00000021098857766130898230000002079045358803602093_" gradientUnits="userSpaceOnUse" x1="1997.1606" y1="7002.5698" x2="2007.5972" y2="-1099.9866">
			<stop  offset="0" style="stop-color:#01052D"/>
			<stop  offset="1" style="stop-color:#010C21"/>
		</linearGradient>
		
			<rect x="2.082" y="1.46" style="clip-path:url(#SVGID_00000012460033097036802190000000732983630551545216_);fill:url(#SVGID_00000021098857766130898230000002079045358803602093_);" width="3999.178" height="6998.54"/>
	</g>
	<g>
		<defs>
			<path id="SVGID_00000046301345287025944910000000135147499954723252_" d="M2.086,2420.155
				c92.566,176.008,159.202,406.502,177.256,708.66c68.895,1153.006,522.179,1344.956,1010.792,1551.865
				c84.611,35.828,170.28,72.107,255.322,113.957c288.106,141.768,559.287,296.43,699.239,544.355
				c139.985,247.966,148.597,589.025-88.592,1103.365c-99.765,216.342-167.297,401.048-200.182,557.643h-3.048
				c32.89-157.008,100.535-342.129,200.496-558.904c236.713-513.309,228.238-853.472,88.717-1100.623
				c-139.551-247.207-410.294-401.598-697.951-543.145c-84.83-41.743-170.537-78.036-255.175-113.881
				c-489.497-207.279-943.608-399.579-1012.616-1554.454c-17.85-298.759-83.244-527.359-174.257-702.368V2420.155z"/>
		</defs>
		<clipPath id="SVGID_00000132782850543868896970000017173959743527506828_">
			<use xlink:href="#SVGID_00000046301345287025944910000000135147499954723252_"  style="overflow:visible;"/>
		</clipPath>
		
			<linearGradient id="SVGID_00000006705234226963868860000016304672218849507490_" gradientUnits="userSpaceOnUse" x1="2442.0225" y1="7556.5903" x2="481.5361" y2="3245.0671">
			<stop  offset="0" style="stop-color:#114FED"/>
			<stop  offset="1" style="stop-color:#FF00BE"/>
		</linearGradient>
		
			<rect x="2.086" y="2420.155" style="clip-path:url(#SVGID_00000132782850543868896970000017173959743527506828_);fill:url(#SVGID_00000006705234226963868860000016304672218849507490_);" width="2291.206" height="4579.845"/>
	</g>
	<g>
		<defs>
			<path id="SVGID_00000102513300000787118320000000216195614890570396_" d="M2.086,2409.532
				c81.144,172.82,137.504,394.114,150.081,677.922c51.132,1153.938,501.406,1352.844,986.778,1567.254
				c84.049,37.133,169.158,74.727,253.539,117.875c285.885,146.187,554.657,305.012,690.775,555.05
				c136.144,250.096,139.498,591.246-105.581,1101.875c-106.635,222.166-178.253,411.016-212.261,570.492h-3.037
				c34.015-159.909,105.747-349.179,212.59-571.791c244.584-509.598,241.344-849.852,105.649-1099.125
				c-135.732-249.334-404.062-407.87-689.505-553.837c-84.184-43.046-169.321-80.649-253.392-117.793
				c-486.253-214.794-937.342-414.06-988.557-1569.859c-12.415-280.163-67.543-499.306-147.078-670.931V2409.532z"/>
		</defs>
		<clipPath id="SVGID_00000060018082411816873330000007430699680311933880_">
			<use xlink:href="#SVGID_00000102513300000787118320000000216195614890570396_"  style="overflow:visible;"/>
		</clipPath>
		
			<linearGradient id="SVGID_00000080171829464737149170000003164859644338354561_" gradientUnits="userSpaceOnUse" x1="2414.7983" y1="7568.9678" x2="454.3118" y2="3257.4441">
			<stop  offset="0" style="stop-color:#114FED"/>
			<stop  offset="1" style="stop-color:#FF00BE"/>
		</linearGradient>
		
			<rect x="2.086" y="2409.532" style="clip-path:url(#SVGID_00000060018082411816873330000007430699680311933880_);fill:url(#SVGID_00000080171829464737149170000003164859644338354561_);" width="2220.671" height="4590.467"/>
	</g>
	<g>
		<defs>
			<path id="SVGID_00000165219762324195445160000005950072170299107723_" d="M2.086,2404.704
				c69.36,168.076,115.571,378.388,123.185,642.035C158.633,4201.329,605.787,4407.146,1087.794,4629
				c83.516,38.442,168.089,77.369,251.696,121.76c283.6,150.574,549.89,313.514,682.144,565.633
				c132.276,252.166,130.38,593.321-122.532,1100.113c-113.837,228.102-189.652,421.127-224.649,583.494h-3.04
				c35.001-162.811,110.94-356.274,225.001-584.833c252.406-505.775,254.408-846.039,122.562-1097.373
				c-131.872-251.382-397.732-414.037-680.898-564.378c-83.599-44.387-168.097-83.28-251.537-121.69
				c-482.884-222.258-930.86-428.45-964.271-1584.891c-7.505-259.69-52.492-467.547-120.183-634.171V2404.704z"/>
		</defs>
		<clipPath id="SVGID_00000170956719904667836870000016367356507324754104_">
			<use xlink:href="#SVGID_00000165219762324195445160000005950072170299107723_"  style="overflow:visible;"/>
		</clipPath>
		
			<linearGradient id="SVGID_00000116914087050359200420000015089700711803470217_" gradientUnits="userSpaceOnUse" x1="2387.1824" y1="7581.5239" x2="426.6963" y2="3270.0012">
			<stop  offset="0" style="stop-color:#114FED"/>
			<stop  offset="1" style="stop-color:#FF00BE"/>
		</linearGradient>
		
			<rect x="2.086" y="2404.704" style="clip-path:url(#SVGID_00000170956719904667836870000016367356507324754104_);fill:url(#SVGID_00000116914087050359200420000015089700711803470217_);" width="2151.825" height="4595.296"/>
	</g>
	<g>
		<defs>
			<path id="SVGID_00000071558308761437569050000003210217252723455395_" d="M2.086,2407.482
				c57.138,161.246,93.317,358.187,96.562,599.191c15.576,1154.964,459.512,1367.64,938.052,1596.898
				c82.927,39.728,166.892,79.956,249.789,125.62c281.243,154.916,544.988,321.94,673.348,576.07
				c128.379,254.168,121.229,595.259-139.46,1098.096c-121.391,234.15-201.519,431.387-237.348,596.644h-3.048
				c35.836-165.72,116.096-363.411,237.729-598.031c260.164-501.827,267.408-842.019,139.445-1095.356
				c-127.978-253.379-391.304-420.104-672.128-574.795c-82.927-45.679-166.805-85.86-249.638-125.542
				C555.987,4376.602,111.244,4163.54,95.645,3006.708c-3.195-236.649-38.143-430.781-93.559-590.232V2407.482z"/>
		</defs>
		<clipPath id="SVGID_00000034079516967869999080000008976489916080995203_">
			<use xlink:href="#SVGID_00000071558308761437569050000003210217252723455395_"  style="overflow:visible;"/>
		</clipPath>
		
			<linearGradient id="SVGID_00000148654044329230799310000003932406847392698299_" gradientUnits="userSpaceOnUse" x1="2359.4387" y1="7594.1392" x2="398.9517" y2="3282.6138">
			<stop  offset="0" style="stop-color:#114FED"/>
			<stop  offset="1" style="stop-color:#FF00BE"/>
		</linearGradient>
		
			<rect x="2.086" y="2407.482" style="clip-path:url(#SVGID_00000034079516967869999080000008976489916080995203_);fill:url(#SVGID_00000148654044329230799310000003932406847392698299_);" width="2086.128" height="4592.518"/>
	</g>
	<g>
		<defs>
			<path id="SVGID_00000125561883278348507550000014392014123386491013_" d="M2.086,2420.767
				c44.375,151.441,70.614,331.701,70.202,546.484c-2.213,1155.072,438.395,1374.56,913.339,1611.154
				c82.277,40.988,165.589,82.493,247.829,129.45c278.826,159.24,539.972,330.308,664.4,586.372
				c124.451,256.115,112.043,597.051-156.355,1095.819c-129.319,240.31-213.862,441.792-250.344,609.955h-3.04
				c36.482-168.639,121.161-370.58,250.741-611.374c267.861-497.761,280.337-837.8,156.294-1093.081
				c-124.069-255.326-384.792-426.089-663.188-585.078c-82.168-46.923-165.438-88.409-247.681-129.376
				C508.473,4344.067,67.065,4124.183,69.282,2967.247c0.404-209.753-24.641-386.526-67.196-535.619V2420.767z"/>
		</defs>
		<clipPath id="SVGID_00000176029670118157571730000008313549533365996721_">
			<use xlink:href="#SVGID_00000125561883278348507550000014392014123386491013_"  style="overflow:visible;"/>
		</clipPath>
		
			<linearGradient id="SVGID_00000178914346856312005210000013441462696455972522_" gradientUnits="userSpaceOnUse" x1="2329.6287" y1="7607.6953" x2="369.1423" y2="3296.1724">
			<stop  offset="0" style="stop-color:#114FED"/>
			<stop  offset="1" style="stop-color:#FF00BE"/>
		</linearGradient>
		
			<rect x="2.086" y="2420.767" style="clip-path:url(#SVGID_00000176029670118157571730000008313549533365996721_);fill:url(#SVGID_00000178914346856312005210000013441462696455972522_);" width="2020.22" height="4579.233"/>
	</g>
	<g>
		<defs>
			<path id="SVGID_00000033358151767044790090000003285623129006744730_" d="M2.086,2452.106
				c30.726,136.552,47.25,294.109,44.092,476.379C26.179,4083.378,463.35,4309.629,934.597,4553.509
				c81.658,42.26,164.339,85.045,245.804,133.251c276.344,163.514,534.828,338.581,655.298,596.538
				c120.489,257.998,102.835,598.706-173.219,1093.283c-137.632,246.587-226.697,452.345-263.62,623.42h-3.037
				c36.92-171.57,126.128-377.805,264.039-624.886c275.487-493.572,293.205-833.385,173.102-1090.544
				c-120.111-257.205-378.179-431.959-654.1-595.224c-81.461-48.196-164.067-90.951-245.653-133.169
				c-472.108-244.326-910.076-470.984-890.039-1627.74c3.048-176.108-12.298-329.095-41.086-462.329V2452.106z"/>
		</defs>
		<clipPath id="SVGID_00000046336934028848006130000014653639677046005380_">
			<use xlink:href="#SVGID_00000033358151767044790090000003285623129006744730_"  style="overflow:visible;"/>
		</clipPath>
		
			<linearGradient id="SVGID_00000079464208620664900340000006425156873768637629_" gradientUnits="userSpaceOnUse" x1="2296.3293" y1="7622.8379" x2="335.8433" y2="3311.3154">
			<stop  offset="0" style="stop-color:#114FED"/>
			<stop  offset="1" style="stop-color:#FF00BE"/>
		</linearGradient>
		
			<rect x="2.086" y="2452.106" style="clip-path:url(#SVGID_00000046336934028848006130000014653639677046005380_);fill:url(#SVGID_00000079464208620664900340000006425156873768637629_);" width="1954.101" height="4547.894"/>
	</g>
	<g>
		<defs>
			<path id="SVGID_00000164506636523087688670000000913589564763587511_" d="M2.086,2519.54
				c15.776,110.935,22.696,233.943,18.216,370.836c-37.781,1154.45,395.855,1387.405,863.291,1638.514
				c80.989,43.507,162.991,87.559,243.727,137.024c273.795,167.75,529.548,346.773,646.029,606.548
				c116.504,259.828,93.608,600.226-190.026,1090.49c-146.365,252.994-240.014,463.042-277.138,637.047h-3.048
				c37.12-174.52,130.932-385.064,277.587-638.56c283.06-489.27,306.005-828.762,189.883-1087.738
				c-116.149-259.027-371.49-437.738-644.862-605.23c-80.691-49.438-162.643-93.461-243.568-136.934
				C413.891,4279.972-20.542,4046.591,17.303,2890.276c4.192-128.133-1.511-244.218-15.217-349.481V2519.54z"/>
		</defs>
		<clipPath id="SVGID_00000011000097754513516790000017028092455282065558_">
			<use xlink:href="#SVGID_00000164506636523087688670000000913589564763587511_"  style="overflow:visible;"/>
		</clipPath>
		
			<linearGradient id="SVGID_00000150795913565193637790000006319494819969996169_" gradientUnits="userSpaceOnUse" x1="2246.7644" y1="7645.3745" x2="286.2782" y2="3333.8516">
			<stop  offset="0" style="stop-color:#114FED"/>
			<stop  offset="1" style="stop-color:#FF00BE"/>
		</linearGradient>
		
			<rect x="-20.542" y="2519.54" style="clip-path:url(#SVGID_00000011000097754513516790000017028092455282065558_);fill:url(#SVGID_00000150795913565193637790000006319494819969996169_);" width="1910.394" height="4480.46"/>
	</g>
	<g>
		<defs>
			<path id="SVGID_00000166666919412495246120000010649006659235444148_" d="M2.086,3325.988
				c70.844,755.179,438.701,960.219,830.537,1178.561c80.294,44.736,161.597,90.042,241.578,140.755
				c271.182,171.946,524.151,354.884,636.617,616.425c112.489,261.594,84.354,601.597-206.796,1087.432
				c-155.516,259.514-253.845,473.883-290.886,650.839h-3.033c37.029-177.487,135.513-392.357,291.339-652.382
				c290.565-484.863,318.737-823.963,206.615-1084.694c-112.142-260.787-364.699-443.403-635.461-615.086
				c-79.905-50.666-161.174-95.95-241.438-140.67C443.752,4291.297,79.789,4088.318,2.086,3355.999V3325.988z"/>
		</defs>
		<clipPath id="SVGID_00000007422311775060324740000014941950274181280651_">
			<use xlink:href="#SVGID_00000166666919412495246120000010649006659235444148_"  style="overflow:visible;"/>
		</clipPath>
		
			<linearGradient id="SVGID_00000174578812749480074370000015791035591752145580_" gradientUnits="userSpaceOnUse" x1="2076.6323" y1="7722.7349" x2="116.1416" y2="3411.2021">
			<stop  offset="0" style="stop-color:#114FED"/>
			<stop  offset="1" style="stop-color:#FF00BE"/>
		</linearGradient>
		
			<rect x="2.086" y="3325.988" style="clip-path:url(#SVGID_00000007422311775060324740000014941950274181280651_);fill:url(#SVGID_00000174578812749480074370000015791035591752145580_);" width="1821.22" height="3674.012"/>
	</g>
	<g>
		<defs>
			<path id="SVGID_00000126286947123379334910000007271250703594921133_" d="M2.086,3532.213
				c111.821,562.46,436.412,750.042,779.582,948.246c79.573,45.966,160.15,92.503,239.383,144.471
				c268.5,176.102,518.621,362.92,627.046,626.158c108.452,263.295,75.082,602.823-223.512,1084.122
				c-165.121,266.152-268.202,484.863-304.838,664.791h-3.037c36.625-180.478,139.876-399.711,305.318-666.385
				c297.994-480.323,331.386-818.951,223.297-1081.378c-108.111-262.479-357.832-448.968-625.92-624.796
				c-79.07-51.859-159.656-98.403-239.24-144.373c-340.866-196.874-663.418-383.321-778.079-935.593V3532.213z"/>
		</defs>
		<clipPath id="SVGID_00000039111959342823059160000007363633045911820193_">
			<use xlink:href="#SVGID_00000126286947123379334910000007271250703594921133_"  style="overflow:visible;"/>
		</clipPath>
		
			<linearGradient id="SVGID_00000075868978850920707860000009397152356800640386_" gradientUnits="userSpaceOnUse" x1="2010.1194" y1="7752.979" x2="49.64" y2="3441.4707">
			<stop  offset="0" style="stop-color:#114FED"/>
			<stop  offset="1" style="stop-color:#FF00BE"/>
		</linearGradient>
		
			<rect x="2.086" y="3532.213" style="clip-path:url(#SVGID_00000039111959342823059160000007363633045911820193_);fill:url(#SVGID_00000075868978850920707860000009397152356800640386_);" width="1754.463" height="3467.787"/>
	</g>
	<g>
		<defs>
			<path id="SVGID_00000090997407752834649780000007823083874329478039_" d="M2.086,3651.448
				c129.859,446.893,421.757,621.605,728.646,805.214c78.87,47.189,158.73,94.966,237.132,148.138
				c265.758,180.213,512.971,370.861,617.332,635.741c104.38,264.929,65.787,603.902-240.184,1080.548
				c-175.186,272.9-283.101,495.98-318.979,678.911h-3.029c35.866-183.501,143.951-407.112,319.477-680.543
				c305.355-475.681,343.956-813.748,239.912-1077.814c-104.055-264.117-350.875-454.428-616.214-634.362
				c-78.285-53.087-158.13-100.858-236.989-148.038c-305.212-182.606-595.618-356.444-727.105-796.901V3651.448z"/>
		</defs>
		<clipPath id="SVGID_00000182512571226473411620000018364422243876335750_">
			<use xlink:href="#SVGID_00000090997407752834649780000007823083874329478039_"  style="overflow:visible;"/>
		</clipPath>
		
			<linearGradient id="SVGID_00000076606074321765724040000000482301945492173736_" gradientUnits="userSpaceOnUse" x1="1959.9065" y1="7775.811" x2="-0.5872" y2="3464.2717">
			<stop  offset="0" style="stop-color:#114FED"/>
			<stop  offset="1" style="stop-color:#FF00BE"/>
		</linearGradient>
		
			<rect x="2.086" y="3651.448" style="clip-path:url(#SVGID_00000182512571226473411620000018364422243876335750_);fill:url(#SVGID_00000076606074321765724040000000482301945492173736_);" width="1687.49" height="3348.552"/>
	</g>
	<g>
		<defs>
			<path id="SVGID_00000071541020587447480040000001315510512347461045_" d="M2.086,3735.088
				c138.365,363.898,401.936,527.219,677.725,698.045c78.115,48.389,157.223,97.377,234.821,151.768
				c262.951,184.285,507.2,378.717,607.466,645.173c100.289,266.502,56.481,604.841-256.795,1076.719
				C1079.568,6586.55,966.754,6814.028,932.04,7000h-3.033c34.703-186.563,147.705-414.579,333.796-694.869
				c312.645-470.92,356.442-808.359,256.481-1073.996c-99.98-265.688-343.831-459.774-606.371-643.776
				c-77.431-54.27-156.555-103.273-234.696-151.675c-274.422-169.979-536.769-332.542-676.131-691.9V3735.088z"/>
		</defs>
		<clipPath id="SVGID_00000175294814839868578430000009494632435129464496_">
			<use xlink:href="#SVGID_00000071541020587447480040000001315510512347461045_"  style="overflow:visible;"/>
		</clipPath>
		
			<linearGradient id="SVGID_00000143592810182429295380000001459311655038471863_" gradientUnits="userSpaceOnUse" x1="1916.3108" y1="7795.6357" x2="-44.1781" y2="3484.1069">
			<stop  offset="0" style="stop-color:#114FED"/>
			<stop  offset="1" style="stop-color:#FF00BE"/>
		</linearGradient>
		
			<rect x="2.086" y="3735.088" style="clip-path:url(#SVGID_00000175294814839868578430000009494632435129464496_);fill:url(#SVGID_00000143592810182429295380000001459311655038471863_);" width="1620.302" height="3264.912"/>
	</g>
	<g>
		<defs>
			<path id="SVGID_00000158724275283086569090000004113894429477964719_" d="M2.086,3798.097
				c141.107,300.358,378.961,452.925,626.812,611.78c77.352,49.578,155.682,99.776,232.46,155.367
				c260.077,188.317,501.307,386.488,597.457,654.448c96.169,268.024,47.155,605.651-273.349,1072.646
				C988.671,6579.076,870.974,6810.935,837.88,7000h-3.025c33.078-189.677,150.965-422.088,348.133-709.372
				c319.859-466.056,368.854-802.773,272.998-1069.913c-95.878-267.195-336.715-465.017-596.392-653.039
				c-76.566-55.438-154.931-105.663-232.32-155.265C380.59,4254.31,143.786,4102.433,2.086,3805.449V3798.097z"/>
		</defs>
		<clipPath id="SVGID_00000112614485255240934620000016641558601934940312_">
			<use xlink:href="#SVGID_00000158724275283086569090000004113894429477964719_"  style="overflow:visible;"/>
		</clipPath>
		
			<linearGradient id="SVGID_00000175310302329146195090000011357127627922161849_" gradientUnits="userSpaceOnUse" x1="1876.5125" y1="7813.7329" x2="-83.9764" y2="3502.2039">
			<stop  offset="0" style="stop-color:#114FED"/>
			<stop  offset="1" style="stop-color:#FF00BE"/>
		</linearGradient>
		
			<rect x="2.086" y="3798.097" style="clip-path:url(#SVGID_00000112614485255240934620000016641558601934940312_);fill:url(#SVGID_00000175310302329146195090000011357127627922161849_);" width="1552.898" height="3201.903"/>
	</g>
	<g>
		<defs>
			<path id="SVGID_00000006681185528769087590000003808165155760917663_" d="M2.086,3847.881
				c139.804,249.895,353.806,391.798,575.898,539.015c76.646,50.808,154.255,102.251,230.047,158.929
				c257.143,192.29,495.279,394.149,587.301,663.573c92.033,269.471,37.83,606.303-289.828,1068.306
				C897.118,6571.518,774.477,6807.781,743.517,7000h-3.022c30.945-192.851,153.79-429.679,362.557-724.042
				c327.005-461.075,381.174-797.005,289.443-1065.588c-91.746-268.628-329.513-470.133-586.27-662.14
				c-75.826-56.702-153.344-108.083-229.899-158.829c-221.057-146.532-434.131-287.798-574.24-535.115V3847.881z"/>
		</defs>
		<clipPath id="SVGID_00000021089611332205290870000011781371794753058447_">
			<use xlink:href="#SVGID_00000006681185528769087590000003808165155760917663_"  style="overflow:visible;"/>
		</clipPath>
		
			<linearGradient id="SVGID_00000163791279681696201520000014845282007468393633_" gradientUnits="userSpaceOnUse" x1="1839.1161" y1="7830.7363" x2="-121.3699" y2="3519.2136">
			<stop  offset="0" style="stop-color:#114FED"/>
			<stop  offset="1" style="stop-color:#FF00BE"/>
		</linearGradient>
		
			<rect x="2.086" y="3847.881" style="clip-path:url(#SVGID_00000021089611332205290870000011781371794753058447_);fill:url(#SVGID_00000163791279681696201520000014845282007468393633_);" width="1485.279" height="3152.119"/>
	</g>
	<g>
		<defs>
			<path id="SVGID_00000116207753990998809260000006005001600169303460_" d="M2.086,3888.229
				c135.419,208.979,326.96,340.258,524.993,475.958c75.864,51.99,152.676,104.629,227.569,162.451
				c254.151,196.229,489.161,401.732,577.016,672.541c87.871,270.851,28.482,606.809-306.25,1063.713
				C804.892,6563.894,677.318,6804.556,649.059,7000h-3.018c28.248-196.101,156.034-437.343,376.959-738.891
				c334.056-455.98,393.392-791.036,305.809-1061.004c-87.603-270.007-322.235-475.158-576.008-671.087
				c-74.957-57.876-151.664-110.446-227.422-162.354C328.267,4231.59,137.595,4100.856,2.086,3893.864V3888.229z"/>
		</defs>
		<clipPath id="SVGID_00000183931066646724020790000016911043949045264781_">
			<use xlink:href="#SVGID_00000116207753990998809260000006005001600169303460_"  style="overflow:visible;"/>
		</clipPath>
		
			<linearGradient id="SVGID_00000117661687212627476940000011381959398377047443_" gradientUnits="userSpaceOnUse" x1="1803.411" y1="7846.9736" x2="-157.0706" y2="3535.4607">
			<stop  offset="0" style="stop-color:#114FED"/>
			<stop  offset="1" style="stop-color:#FF00BE"/>
		</linearGradient>
		
			<rect x="2.086" y="3888.229" style="clip-path:url(#SVGID_00000183931066646724020790000016911043949045264781_);fill:url(#SVGID_00000117661687212627476940000011381959398377047443_);" width="1417.449" height="3111.771"/>
	</g>
	<g>
		<defs>
			<path id="SVGID_00000162344493547383621740000008042445784317865403_" d="M2.086,3921.838
				c128.571,175.217,298.753,295.758,474.087,419.912c75.018,53.128,150.984,106.92,225.035,165.938
				c251.103,200.124,482.918,409.222,566.592,681.346c83.69,272.175,19.142,607.173-322.593,1058.871
				C711.979,6556.176,579.484,6801.234,554.556,7000h-3.01c24.913-199.448,157.624-445.093,391.262-753.91
				c341.04-450.783,405.531-784.887,322.117-1056.17c-83.433-271.333-314.881-480.068-565.603-679.882
				c-73.998-58.979-149.919-112.738-224.899-165.831c-174.476-123.554-343.842-243.561-472.338-417.182V3921.838z"/>
		</defs>
		<clipPath id="SVGID_00000176006118702053634000000015932414016596508579_">
			<use xlink:href="#SVGID_00000162344493547383621740000008042445784317865403_"  style="overflow:visible;"/>
		</clipPath>
		
			<linearGradient id="SVGID_00000062152105987203955750000008427917748729132216_" gradientUnits="userSpaceOnUse" x1="1768.8853" y1="7862.6719" x2="-191.5977" y2="3551.1563">
			<stop  offset="0" style="stop-color:#114FED"/>
			<stop  offset="1" style="stop-color:#FF00BE"/>
		</linearGradient>
		
			<rect x="2.086" y="3921.838" style="clip-path:url(#SVGID_00000176006118702053634000000015932414016596508579_);fill:url(#SVGID_00000062152105987203955750000008427917748729132216_);" width="1349.403" height="3078.162"/>
	</g>
	<g>
		<defs>
			<path id="SVGID_00000137118883234785840100000001062485901322884997_" d="M2.086,3950.724
				c119.695,146.867,269.429,256.414,423.162,368.867c74.206,54.284,149.341,109.243,222.451,169.381
				c247.991,203.961,476.557,416.602,556.032,689.991c79.494,273.433,9.79,607.404-338.857,1053.777
				c-246.518,315.623-383.882,565.066-404.78,767.26h-3.006c20.886-202.907,158.473-452.945,405.418-769.112
				c347.944-445.475,417.572-778.547,338.347-1051.083c-79.24-272.575-307.448-484.852-555.065-688.508
				c-73.099-60.124-148.174-115.041-222.319-169.277c-152.933-111.87-301.896-220.892-421.383-366.465V3950.724z"/>
		</defs>
		<clipPath id="SVGID_00000159455633294232075720000016814136060358466461_">
			<use xlink:href="#SVGID_00000137118883234785840100000001062485901322884997_"  style="overflow:visible;"/>
		</clipPath>
		
			<linearGradient id="SVGID_00000048472289051328515300000002487214549784661690_" gradientUnits="userSpaceOnUse" x1="1735.1591" y1="7878.0083" x2="-225.3309" y2="3566.4771">
			<stop  offset="0" style="stop-color:#114FED"/>
			<stop  offset="1" style="stop-color:#FF00BE"/>
		</linearGradient>
		
			<rect x="2.086" y="3950.724" style="clip-path:url(#SVGID_00000159455633294232075720000016814136060358466461_);fill:url(#SVGID_00000048472289051328515300000002487214549784661690_);" width="1281.139" height="3049.276"/>
	</g>
	<g>
		<defs>
			<path id="SVGID_00000055701604361280205350000003316194683690854056_" d="M2.086,3976.207
				c109.12,122.706,239.157,220.969,372.23,321.498c73.326,55.393,147.581,111.482,219.815,172.786
				c244.822,207.763,470.095,423.903,545.347,698.468c75.271,274.626,0.434,607.479-355.045,1048.437
				C524.019,6540.43,381.817,6794.249,365.705,7000h-2.991c16.101-206.498,158.53-460.922,419.382-784.494
				c354.758-440.064,429.508-772.024,354.486-1045.746c-75.037-273.776-299.943-489.541-544.391-696.982
				c-72.106-61.188-146.357-117.282-219.69-172.675c-132.295-99.946-261.607-197.639-370.413-319.258V3976.207z"/>
		</defs>
		<clipPath id="SVGID_00000129178522117087802990000004438106516564583589_">
			<use xlink:href="#SVGID_00000055701604361280205350000003316194683690854056_"  style="overflow:visible;"/>
		</clipPath>
		
			<linearGradient id="SVGID_00000066475872162744475030000008255631460499128740_" gradientUnits="userSpaceOnUse" x1="1701.9863" y1="7893.0928" x2="-258.5063" y2="3581.5557">
			<stop  offset="0" style="stop-color:#114FED"/>
			<stop  offset="1" style="stop-color:#FF00BE"/>
		</linearGradient>
		
			<rect x="2.086" y="3976.207" style="clip-path:url(#SVGID_00000129178522117087802990000004438106516564583589_);fill:url(#SVGID_00000066475872162744475030000008255631460499128740_);" width="1212.663" height="3023.793"/>
	</g>
	<g>
		<defs>
			<path id="SVGID_00000083074151710961226730000005697508963098488995_" d="M1684.904,1.46
				c64.835,158.689,110.298,354.189,124.719,595.508c68.899,1153.006,522.183,1344.958,1010.792,1551.865
				c84.611,35.828,170.284,72.106,255.322,113.956c288.106,141.768,559.291,296.432,699.242,544.355
				c139.981,247.969,148.597,589.027-88.592,1103.367c-236.69,513.275-291.985,848.498-133.515,1052.639
				c85.499,110.13,233.299,182.217,448.388,223.667v3.021c-216.17-41.59-364.744-114.055-450.76-224.857
				c-159.278-205.178-104.051-541.358,133.153-1055.734c236.713-513.307,228.234-853.47,88.713-1100.623
				c-139.547-247.209-410.291-401.596-697.951-543.147c-84.827-41.741-170.533-78.034-255.175-113.877
				c-489.497-207.281-943.604-399.579-1012.613-1554.456c-14.436-241.544-60.023-437.084-125.013-595.686H1684.904z"/>
		</defs>
		<clipPath id="SVGID_00000023992719403712413260000001890477046032890512_">
			<use xlink:href="#SVGID_00000083074151710961226730000005697508963098488995_"  style="overflow:visible;"/>
		</clipPath>
		
			<linearGradient id="SVGID_00000062164533824212028630000011617932145159871889_" gradientUnits="userSpaceOnUse" x1="4350.2817" y1="6510.5313" x2="1788.6201" y2="-136.0107">
			<stop  offset="0" style="stop-color:#0463EE"/>
			<stop  offset="1" style="stop-color:#FF00E9"/>
		</linearGradient>
		
			<rect x="1681.614" y="1.46" style="clip-path:url(#SVGID_00000023992719403712413260000001890477046032890512_);fill:url(#SVGID_00000062164533824212028630000011617932145159871889_);" width="2319.646" height="5188.38"/>
	</g>
	<g>
		<defs>
			<path id="SVGID_00000158025585878232649350000017864524535237630862_" d="M1682.974,1.46
				c53.557,151.529,89.718,333.985,99.474,554.149c51.132,1153.937,501.409,1352.842,986.782,1567.252
				c84.045,37.131,169.158,74.727,253.536,117.875c285.889,146.187,554.657,305.011,690.778,555.052
				c136.14,250.097,139.494,591.244-105.585,1101.875c-244.569,509.564-305.015,843.894-149.703,1050.452
				c96.003,127.684,274.547,206.694,543.005,248.261v3.01c-269.553-41.702-448.868-121.082-545.403-249.464
				c-156.098-207.607-95.7-542.897,149.397-1053.56c244.584-509.596,241.344-849.85,105.649-1099.127
				c-135.732-249.332-404.062-407.865-689.509-553.833c-84.181-43.046-169.317-80.653-253.392-117.794
				c-486.249-214.795-937.338-414.062-988.553-1569.862c-9.767-220.34-46.022-402.823-99.7-554.285H1682.974z"/>
		</defs>
		<clipPath id="SVGID_00000039112518786627966540000016149166789789309095_">
			<use xlink:href="#SVGID_00000158025585878232649350000017864524535237630862_"  style="overflow:visible;"/>
		</clipPath>
		
			<linearGradient id="SVGID_00000074409768201679837290000000234732832064008614_" gradientUnits="userSpaceOnUse" x1="4347.8677" y1="6511.4614" x2="1786.1965" y2="-135.1052">
			<stop  offset="0" style="stop-color:#0463EE"/>
			<stop  offset="1" style="stop-color:#FF00E9"/>
		</linearGradient>
		
			<rect x="1679.748" y="1.46" style="clip-path:url(#SVGID_00000039112518786627966540000016149166789789309095_);fill:url(#SVGID_00000074409768201679837290000000234732832064008614_);" width="2321.512" height="5197.926"/>
	</g>
	<g>
		<defs>
			<path id="SVGID_00000007419939703357912880000013252332780342095263_" d="M1678.086,1.46
				c43.548,143.664,71.679,313.102,77.469,513.431c33.358,1154.59,480.515,1360.408,962.522,1582.264
				c83.512,38.442,168.086,77.367,251.696,121.758c283.6,150.574,549.89,313.515,682.14,565.633
				c132.28,252.167,130.384,593.322-122.528,1100.115c-252.391,505.74-317.974,839.103-165.865,1048.025
				c105.128,144.391,314.329,229.542,637.739,271.291v3.002c-324.508-41.871-534.499-127.395-640.167-272.524
				c-152.884-209.989-87.327-544.308,165.601-1051.137c252.41-505.772,254.408-846.036,122.566-1097.371
				c-131.876-251.385-397.732-414.037-680.898-564.381c-83.603-44.385-168.097-83.278-251.538-121.686
				c-482.887-222.26-930.86-428.454-964.271-1584.893c-5.794-200.46-33.996-369.919-77.639-513.528H1678.086z"/>
		</defs>
		<clipPath id="SVGID_00000157295030627142181070000016547330172595313811_">
			<use xlink:href="#SVGID_00000007419939703357912880000013252332780342095263_"  style="overflow:visible;"/>
		</clipPath>
		
			<linearGradient id="SVGID_00000088101716248116135580000010551388713015076260_" gradientUnits="userSpaceOnUse" x1="4344.4893" y1="6512.7642" x2="1782.835" y2="-133.7587">
			<stop  offset="0" style="stop-color:#0463EE"/>
			<stop  offset="1" style="stop-color:#FF00E9"/>
		</linearGradient>
		
			<rect x="1674.914" y="1.46" style="clip-path:url(#SVGID_00000157295030627142181070000016547330172595313811_);fill:url(#SVGID_00000088101716248116135580000010551388713015076260_);" width="2326.346" height="5205.52"/>
	</g>
	<g>
		<defs>
			<path id="SVGID_00000151539604013069938260000013645287149121812632_" d="M1670.551,1.46
				c34.706,135.219,55.933,291.726,58.38,473.367c15.576,1154.964,459.508,1367.637,938.048,1596.898
				c82.927,39.726,166.892,79.954,249.793,125.62c281.24,154.914,544.988,321.938,673.348,576.069
				c128.379,254.168,121.229,595.261-139.46,1098.098c-260.149,501.791-330.861,834.101-181.985,1045.346
				c113.063,160.426,352.888,251.26,732.585,293.726v3.008c-380.811-42.58-621.426-133.8-735.037-295.004
				c-149.639-212.32-78.938-545.587,181.77-1048.464c260.16-501.827,267.405-842.019,139.445-1095.356
				c-127.978-253.379-391.308-420.107-672.132-574.795c-82.923-45.682-166.802-85.862-249.634-125.546
				c-479.401-229.669-924.145-442.732-939.747-1599.564c-2.447-181.724-23.719-338.237-58.497-473.401H1670.551z"/>
		</defs>
		<clipPath id="SVGID_00000044899107961615409580000007799306416415083185_">
			<use xlink:href="#SVGID_00000151539604013069938260000013645287149121812632_"  style="overflow:visible;"/>
		</clipPath>
		
			<linearGradient id="SVGID_00000152976822199722875830000018363139562035906984_" gradientUnits="userSpaceOnUse" x1="4340.1211" y1="6514.4478" x2="1778.4587" y2="-132.096">
			<stop  offset="0" style="stop-color:#0463EE"/>
			<stop  offset="1" style="stop-color:#FF00E9"/>
		</linearGradient>
		
			<rect x="1667.428" y="1.46" style="clip-path:url(#SVGID_00000044899107961615409580000007799306416415083185_);fill:url(#SVGID_00000152976822199722875830000018363139562035906984_);" width="2333.832" height="5212.131"/>
	</g>
	<g>
		<defs>
			<path id="SVGID_00000044143166236669040040000008584723267784370333_" d="M1660.648,1.46
				c26.941,126.279,42.242,269.994,41.924,433.945c-2.213,1155.07,438.395,1374.558,913.339,1611.15
				c82.277,40.989,165.589,82.494,247.825,129.451c278.826,159.24,539.976,330.306,664.4,586.374
				c124.451,256.115,112.047,597.05-156.351,1095.819c-267.843,497.723-343.665,828.909-198.056,1042.418
				c119.968,175.916,390.36,272.233,827.531,316.295v3.01c-438.3-44.166-709.489-140.875-830.016-317.61
				c-146.346-214.595-70.527-546.734,197.897-1045.532c267.858-497.761,280.337-837.802,156.294-1093.083
				c-124.069-255.328-384.792-426.089-663.191-585.078c-82.164-46.923-165.438-88.407-247.677-129.376
				c-475.809-237.023-917.218-456.909-915.001-1613.847c0.313-163.999-15.013-307.71-42.007-433.938H1660.648z"/>
		</defs>
		<clipPath id="SVGID_00000156561744950352273110000001974238752437134220_">
			<use xlink:href="#SVGID_00000044143166236669040040000008584723267784370333_"  style="overflow:visible;"/>
		</clipPath>
		
			<linearGradient id="SVGID_00000149353047630479558060000010428487780494899100_" gradientUnits="userSpaceOnUse" x1="4334.7627" y1="6516.5142" x2="1773.1042" y2="-130.0196">
			<stop  offset="0" style="stop-color:#0463EE"/>
			<stop  offset="1" style="stop-color:#FF00E9"/>
		</linearGradient>
		
			<rect x="1657.559" y="1.46" style="clip-path:url(#SVGID_00000156561744950352273110000001974238752437134220_);fill:url(#SVGID_00000149353047630479558060000010428487780494899100_);" width="2343.701" height="5218.463"/>
	</g>
	<g>
		<defs>
			<path id="SVGID_00000044139433039941121010000000067820831639862718_" d="M1648.603,1.46
				c20.188,116.929,30.408,248.044,27.859,395.179c-20.003,1154.892,417.172,1381.145,888.419,1625.023
				c81.658,42.26,164.335,85.048,245.804,133.253c276.345,163.512,534.828,338.581,655.294,596.536
				c120.489,257.998,102.839,598.704-173.215,1093.284c-275.472,493.54-356.39,823.512-214.085,1039.242
				c125.954,190.94,426.894,292.708,922.581,339.501v3.012c-496.832-46.887-798.569-149.052-925.089-340.857
				c-143.022-216.822-62.093-547.754,213.976-1042.365c275.487-493.574,293.201-833.385,173.102-1090.544
				c-120.115-257.205-378.179-431.959-654.1-595.221c-81.461-48.198-164.071-90.953-245.653-133.172
				c-472.108-244.327-910.076-470.984-890.043-1627.738c2.549-147.152-7.682-278.256-27.904-395.132H1648.603z"/>
		</defs>
		<clipPath id="SVGID_00000015323236734586900390000002841238605092131731_">
			<use xlink:href="#SVGID_00000044139433039941121010000000067820831639862718_"  style="overflow:visible;"/>
		</clipPath>
		
			<linearGradient id="SVGID_00000016058509513442629450000000248944749210144682_" gradientUnits="userSpaceOnUse" x1="4328.4316" y1="6518.9517" x2="1766.76" y2="-127.6156">
			<stop  offset="0" style="stop-color:#0463EE"/>
			<stop  offset="1" style="stop-color:#FF00E9"/>
		</linearGradient>
		
			<rect x="1645.548" y="1.46" style="clip-path:url(#SVGID_00000015323236734586900390000002841238605092131731_);fill:url(#SVGID_00000016058509513442629450000000248944749210144682_);" width="2355.712" height="5225.03"/>
	</g>
	<g>
		<defs>
			<path id="SVGID_00000132793593757635039510000005945792761084718772_" d="M1634.342,1.46
				c14.405,107.315,20.539,225.847,16.245,357.069c-37.785,1154.452,395.855,1387.407,863.287,1638.516
				c80.989,43.507,162.991,87.559,243.73,137.024c273.795,167.748,529.548,346.771,646.029,606.547
				c116.504,259.83,93.604,600.226-190.03,1090.491c-283.037,489.24-369.023,817.927-230.058,1035.82
				c131.105,205.578,462.575,312.911,1017.715,363.773v3.01c-556.3-50.951-888.57-158.681-1020.253-365.163
				c-139.672-218.998-53.656-548.652,230.001-1038.955c283.056-489.27,306.005-828.764,189.883-1087.738
				c-116.149-259.027-371.493-437.739-644.866-605.23c-80.687-49.437-162.639-93.459-243.568-136.933
				c-468.286-251.564-902.714-484.948-864.873-1641.262c4.298-131.217-1.858-249.709-16.29-356.969H1634.342z"/>
		</defs>
		<clipPath id="SVGID_00000117643185771165343890000005540759676382803344_">
			<use xlink:href="#SVGID_00000132793593757635039510000005945792761084718772_"  style="overflow:visible;"/>
		</clipPath>
		
			<linearGradient id="SVGID_00000145059393753336828200000010218336868518255520_" gradientUnits="userSpaceOnUse" x1="4311.6338" y1="6525.4292" x2="1749.9789" y2="-121.0945">
			<stop  offset="0" style="stop-color:#0463EE"/>
			<stop  offset="1" style="stop-color:#FF00E9"/>
		</linearGradient>
		
			<rect x="1609.742" y="1.46" style="clip-path:url(#SVGID_00000117643185771165343890000005540759676382803344_);fill:url(#SVGID_00000145059393753336828200000010218336868518255520_);" width="2391.518" height="5232.251"/>
	</g>
	<g>
		<defs>
			<path id="SVGID_00000183212981332587051480000008459697540985315209_" d="M1618.195,1.46
				c9.518,97.447,12.343,203.572,6.753,319.623c-55.555,1153.737,374.44,1393.339,837.955,1651.616
				c80.294,44.74,161.601,90.044,241.581,140.758c271.182,171.944,524.151,354.886,636.617,616.427
				c112.489,261.592,84.351,601.597-206.796,1087.43c-290.542,484.827-381.582,812.154-245.993,1032.156
				c135.513,219.881,497.485,333.008,1112.947,389.427v3.012c-616.622-56.5-979.406-170.029-1115.497-390.856
				c-136.284-221.127-45.207-549.411,245.963-1035.283c290.565-484.861,318.733-823.961,206.615-1084.69
				c-112.141-260.789-364.703-443.407-635.461-615.086c-79.905-50.666-161.174-95.952-241.442-140.673
				C1997.08,1716.569,1566.3,1476.533,1621.942,320.94c5.59-116.017,2.753-222.092-6.783-319.479H1618.195z"/>
		</defs>
		<clipPath id="SVGID_00000083078602495739908860000010794600517102458761_">
			<use xlink:href="#SVGID_00000183212981332587051480000008459697540985315209_"  style="overflow:visible;"/>
		</clipPath>
		
			<linearGradient id="SVGID_00000052065432366167170930000000858526000081726084_" gradientUnits="userSpaceOnUse" x1="4291.3452" y1="6533.2456" x2="1729.6755" y2="-113.3168">
			<stop  offset="0" style="stop-color:#0463EE"/>
			<stop  offset="1" style="stop-color:#FF00E9"/>
		</linearGradient>
		
			<rect x="1566.3" y="1.46" style="clip-path:url(#SVGID_00000083078602495739908860000010794600517102458761_);fill:url(#SVGID_00000052065432366167170930000000858526000081726084_);" width="2434.96" height="5240.449"/>
	</g>
	<g>
		<defs>
			<path id="SVGID_00000126285053670980920570000013094418225830477744_" d="M4001.26,6911.074
				c-47.76,32.187-88.388,61.74-122.498,88.926h-4.325c35.092-28.174,77.133-58.866,126.823-92.356V6911.074z M1600.425,1.46
				c5.469,87.344,5.556,181.347-0.899,282.833c-73.314,1152.739,352.945,1398.936,812.426,1664.318
				c79.573,45.967,160.146,92.501,239.383,144.47c268.5,176.1,518.621,362.918,627.046,626.158
				c108.448,263.295,75.082,602.824-223.516,1084.122c-297.971,480.291-394.042,806.178-261.856,1028.24
				c132.246,222.172,493.032,340.877,1108.713,406.725c33.8,3.613,66.98,7.639,99.538,12.048v3.035
				c-32.659-4.43-65.942-8.466-99.855-12.092c-616.678-65.959-978.174-185.074-1110.972-408.168
				c-132.862-223.203-36.739-550.047,261.879-1031.38c297.994-480.327,331.382-818.951,223.293-1081.382
				c-108.108-262.476-357.833-448.966-625.917-624.795c-79.074-51.858-159.656-98.401-239.244-144.37
				c-460.316-265.867-887.354-512.51-813.914-1667.113c6.451-101.434,6.357-195.38,0.876-282.65H1600.425z"/>
		</defs>
		<clipPath id="SVGID_00000003807819114950643220000004523190877576235678_">
			<use xlink:href="#SVGID_00000126285053670980920570000013094418225830477744_"  style="overflow:visible;"/>
		</clipPath>
		
			<linearGradient id="SVGID_00000093166723796493853700000009382543373067434919_" gradientUnits="userSpaceOnUse" x1="3977.5581" y1="6654.187" x2="1415.8932" y2="7.6368">
			<stop  offset="0" style="stop-color:#0463EE"/>
			<stop  offset="1" style="stop-color:#FF00E9"/>
		</linearGradient>
		
			<rect x="1523.092" y="1.46" style="clip-path:url(#SVGID_00000003807819114950643220000004523190877576235678_);fill:url(#SVGID_00000093166723796493853700000009382543373067434919_);" width="2478.169" height="6998.54"/>
	</g>
	<g>
		<defs>
			<path id="SVGID_00000082368886606763114680000007999244404120161970_" d="M4001.26,6832.122
				c-108.519,64.399-191.824,119.835-253.747,167.878h-4.389c62.633-48.968,147.331-105.522,258.136-171.289V6832.122z
				 M1580.966,1.46c2.228,77.097,0.272,159.157-6.655,246.724c-91.055,1151.47,331.36,1404.205,786.705,1676.633
				c78.87,47.185,158.727,94.964,237.132,148.136c265.758,180.212,512.967,370.861,617.332,635.74
				c104.376,264.931,65.787,603.901-240.184,1080.549c-305.34,475.647-406.415,800.01-277.663,1024.091
				c128.805,224.177,487.718,348.42,1102.315,423.744c69.813,8.559,136.948,18.815,201.312,30.641v3.052
				c-64.469-11.856-131.725-22.137-201.678-30.71c-615.579-75.442-975.202-200.11-1104.551-425.228
				c-129.406-225.218-28.259-550.544,277.734-1027.22c305.352-475.681,343.956-813.748,239.912-1077.814
				c-104.055-264.117-350.875-454.428-616.214-634.362c-78.285-53.085-158.134-100.858-236.992-148.038
				c-456.169-272.924-879.354-526.118-788.144-1679.449c6.916-87.493,8.865-169.472,6.632-246.488H1580.966z"/>
		</defs>
		<clipPath id="SVGID_00000039117071900403910090000007662504362872870072_">
			<use xlink:href="#SVGID_00000082368886606763114680000007999244404120161970_"  style="overflow:visible;"/>
		</clipPath>
		
			<linearGradient id="SVGID_00000141424721555031713700000003246455002193349011_" gradientUnits="userSpaceOnUse" x1="3958.8481" y1="6661.3926" x2="1397.1843" y2="14.8453">
			<stop  offset="0" style="stop-color:#0463EE"/>
			<stop  offset="1" style="stop-color:#FF00E9"/>
		</linearGradient>
		
			<rect x="1480.117" y="1.46" style="clip-path:url(#SVGID_00000039117071900403910090000007662504362872870072_);fill:url(#SVGID_00000141424721555031713700000003246455002193349011_);" width="2521.143" height="6998.54"/>
	</g>
	<g>
		<defs>
			<path id="SVGID_00000125576354051435499940000015754616121497867703_" d="M4001.26,6763.005
				c-176.157,94.936-301.684,172.622-386.699,236.995h-4.43c85.518-65.281,212.408-144.057,391.13-240.375V6763.005z M1559.83,1.46
				c-0.242,66.79-3.497,137.003-10.523,211.277c-108.78,1149.933,309.695,1409.14,760.788,1688.549
				c78.115,48.389,157.219,97.379,234.817,151.767c262.955,184.287,507.203,378.719,607.47,645.174
				c100.289,266.502,56.48,604.841-256.795,1076.717c-312.626,470.888-418.683,793.659-293.397,1019.694
				c125.342,226.14,482.302,355.897,1095.664,440.672c107.715,14.891,209.001,33.728,303.406,56.088v3.085
				c-94.507-22.408-195.929-41.286-303.822-56.199c-614.352-84.916-972.01-215.1-1097.874-442.181
				c-125.924-227.184-19.78-550.92,293.518-1022.82c312.645-470.918,356.446-808.359,256.485-1073.996
				c-99.98-265.686-343.831-459.776-606.375-643.774c-77.427-54.271-156.551-103.273-234.692-151.677
				c-451.909-279.916-871.143-539.591-762.185-1691.386c7.018-74.177,10.266-144.295,10.504-210.992H1559.83z"/>
		</defs>
		<clipPath id="SVGID_00000010310744495739821990000008240023870236315827_">
			<use xlink:href="#SVGID_00000125576354051435499940000015754616121497867703_"  style="overflow:visible;"/>
		</clipPath>
		
			<linearGradient id="SVGID_00000054248204007394762290000003962081533887486637_" gradientUnits="userSpaceOnUse" x1="3940.2339" y1="6668.5674" x2="1378.5693" y2="22.018">
			<stop  offset="0" style="stop-color:#0463EE"/>
			<stop  offset="1" style="stop-color:#FF00E9"/>
		</linearGradient>
		
			<rect x="1437.358" y="1.46" style="clip-path:url(#SVGID_00000010310744495739821990000008240023870236315827_);fill:url(#SVGID_00000054248204007394762290000003962081533887486637_);" width="2563.902" height="6998.54"/>
	</g>
	<g>
		<defs>
			<path id="SVGID_00000131369120573964088970000003582754572225293725_" d="M4001.26,6701.303
				c-249.351,123.871-416.56,220.999-521.359,298.697h-4.506c105.124-78.612,273.678-176.811,525.865-302.052V6701.303z
				 M1537.448,1.46c-1.987,56.335-6.198,115.088-12.963,176.506c-126.475,1148.122,287.963,1413.742,734.697,1700.063
				c77.352,49.578,155.682,99.778,232.456,155.367c260.081,188.317,501.308,386.486,597.461,654.446
				c96.169,268.026,47.155,605.653-273.353,1072.645c-319.832,466.021-430.848,787.125-309.06,1015.054
				c121.844,228.041,476.765,363.275,1088.752,457.489c147.97,22.779,283.638,52.851,405.822,89.1v3.135
				c-122.271-36.323-258.098-66.45-406.291-89.262c-612.966-94.367-968.573-230.049-1090.928-459.042
				c-122.415-229.099-11.297-551.158,309.23-1018.18c319.859-466.055,368.85-802.772,272.998-1069.913
				c-95.878-267.195-336.715-465.017-596.392-653.041c-76.566-55.44-154.934-105.662-232.324-155.265
				c-447.546-286.841-862.736-552.946-736.057-1702.93c6.753-61.304,10.953-119.947,12.936-176.174H1537.448z"/>
		</defs>
		<clipPath id="SVGID_00000143602137978420667740000002375449719518262929_">
			<use xlink:href="#SVGID_00000131369120573964088970000003582754572225293725_"  style="overflow:visible;"/>
		</clipPath>
		
			<linearGradient id="SVGID_00000155863041010932602930000013426377252393876657_" gradientUnits="userSpaceOnUse" x1="3921.7148" y1="6675.7046" x2="1360.0498" y2="29.1543">
			<stop  offset="0" style="stop-color:#0463EE"/>
			<stop  offset="1" style="stop-color:#FF00E9"/>
		</linearGradient>
		
			<rect x="1394.819" y="1.46" style="clip-path:url(#SVGID_00000143602137978420667740000002375449719518262929_);fill:url(#SVGID_00000155863041010932602930000013426377252393876657_);" width="2606.441" height="6998.54"/>
	</g>
	<g>
		<defs>
			<path id="SVGID_00000001627957503695080060000004732916087085012116_" d="M4001.26,6643.949
				c-25.298,12.836-51.385,25.604-78.319,38.292c-282.954,133.302-467.757,236.256-579.626,317.759h-4.528
				c111.934-82.296,297.654-186.115,582.871-320.48c27.391-12.904,53.908-25.891,79.603-38.948V6643.949z M1513.43,1.46
				c-3.037,45.928-7.403,93.253-13.586,142.414c-144.14,1146.045,266.151,1418.014,708.421,1711.175
				c76.649,50.807,154.258,102.251,230.05,158.93c257.143,192.288,495.28,394.15,587.297,663.571
				c92.037,269.472,37.83,606.305-289.828,1068.304c-326.974,461.036-442.919,780.39-324.655,1010.176
				c118.317,229.884,471.111,370.574,1081.568,474.198c191.182,32.456,361.579,76.809,508.563,130.647v3.195
				c-147.033-53.935-317.6-98.371-509.065-130.874c-611.443-103.796-964.925-244.939-1083.74-475.789
				c-118.868-230.951-2.802-551.263,324.882-1013.298c327.001-461.073,381.17-797.003,289.443-1065.588
				c-91.75-268.626-329.513-470.135-586.274-662.138c-75.822-56.703-153.341-108.083-229.896-158.83
				c-443.082-293.7-854.12-566.167-709.75-1714.059c6.168-49.031,10.526-96.231,13.559-142.036H1513.43z"/>
		</defs>
		<clipPath id="SVGID_00000057843957420505842220000006765838704554444164_">
			<use xlink:href="#SVGID_00000001627957503695080060000004732916087085012116_"  style="overflow:visible;"/>
		</clipPath>
		
			<linearGradient id="SVGID_00000030448548766732590030000016570390481821304234_" gradientUnits="userSpaceOnUse" x1="3903.29" y1="6682.812" x2="1341.6265" y2="36.2656">
			<stop  offset="0" style="stop-color:#0463EE"/>
			<stop  offset="1" style="stop-color:#FF00E9"/>
		</linearGradient>
		
			<rect x="1352.49" y="1.46" style="clip-path:url(#SVGID_00000057843957420505842220000006765838704554444164_);fill:url(#SVGID_00000030448548766732590030000016570390481821304234_);" width="2648.77" height="6998.54"/>
	</g>
	<g>
		<defs>
			<path id="SVGID_00000067949021879810201430000000938599949743415689_" d="M4001.26,6583.096
				c-61.942,34.655-129.799,68.801-203.77,102.267c-291.985,132.101-480.413,233.926-592.63,314.637h-4.57
				c112.255-81.522,301.646-184.221,595.961-317.377c74.478-33.694,142.75-68.074,205.009-102.965V6583.096z M1488.23,1.46
				c-3.411,35.458-7.58,71.681-12.857,108.993c-161.775,1143.69,244.278,1421.946,681.985,1721.888
				c75.868,51.988,152.68,104.629,227.573,162.449c254.151,196.23,489.161,401.73,577.013,672.541
				c87.871,270.851,28.486,606.811-306.25,1063.711c-334.034,455.95-454.881,773.475-340.167,1005.058
				c114.763,231.681,465.343,377.786,1074.135,490.798c238.314,44.243,443.856,106.578,611.598,182.202v3.29
				c-167.734-75.768-373.461-138.225-612.15-182.533c-609.77-113.201-961.034-259.771-1076.281-492.424
				c-115.292-232.753,5.688-551.235,340.451-1008.173c334.056-455.98,393.392-791.037,305.809-1061.003
				c-87.599-270.009-322.235-475.158-576.008-671.089c-74.954-57.878-151.664-110.444-227.418-162.352
				c-438.504-300.491-845.301-579.254-683.266-1724.78c5.254-37.169,9.408-73.252,12.812-108.578H1488.23z"/>
		</defs>
		<clipPath id="SVGID_00000018222430621515435850000006338015038166893721_">
			<use xlink:href="#SVGID_00000067949021879810201430000000938599949743415689_"  style="overflow:visible;"/>
		</clipPath>
		
			<linearGradient id="SVGID_00000048482102028482599130000003800424154552867997_" gradientUnits="userSpaceOnUse" x1="3884.949" y1="6689.8774" x2="1323.2843" y2="43.3279">
			<stop  offset="0" style="stop-color:#0463EE"/>
			<stop  offset="1" style="stop-color:#FF00E9"/>
		</linearGradient>
		
			<rect x="1310.362" y="1.46" style="clip-path:url(#SVGID_00000018222430621515435850000006338015038166893721_);fill:url(#SVGID_00000048482102028482599130000003800424154552867997_);" width="2690.898" height="6998.54"/>
	</g>
	<g>
		<defs>
			<path id="SVGID_00000094610620768073197460000015115528446753479340_" d="M4001.26,6515.783
				c-92.615,58.975-202.192,116.526-329.603,171.823c-302.636,131.347-495.049,232.296-607.221,312.394h-4.563
				c112.168-80.931,305.537-182.755,610.575-315.145c128.024-55.563,237.997-113.384,330.812-172.629V6515.783z M1461.724,1.46
				c-3.146,25.03-6.591,50.347-10.666,76.262c-179.368,1141.059,222.36,1425.539,655.396,1732.182
				c75.018,53.127,150.988,106.92,225.034,165.937c251.103,200.124,482.921,409.222,566.596,681.347
				c83.69,272.173,19.142,607.174-322.593,1058.869c-341.021,450.751-466.748,766.382-355.615,999.703
				c111.182,233.416,459.474,384.899,1066.457,507.279c290.863,58.643,532.207,143.641,714.928,246.042v3.44
				c-182.601-102.608-424.159-187.788-715.521-246.533c-607.957-122.574-956.925-274.536-1068.576-508.937
				c-111.696-234.503,14.171-551.086,355.929-1002.809c341.04-450.781,405.531-784.885,322.117-1056.17
				c-83.433-271.331-314.881-480.068-565.603-679.88c-73.998-58.981-149.922-112.742-224.899-165.835
				c-433.821-307.204-836.274-592.2-656.623-1735.098c4.049-25.757,7.475-50.921,10.609-75.8H1461.724z"/>
		</defs>
		<clipPath id="SVGID_00000011732314956547940060000016707968613323123356_">
			<use xlink:href="#SVGID_00000094610620768073197460000015115528446753479340_"  style="overflow:visible;"/>
		</clipPath>
		
			<linearGradient id="SVGID_00000005953628625860062660000008286181387102466196_" gradientUnits="userSpaceOnUse" x1="3866.6973" y1="6696.9146" x2="1305.0337" y2="50.368">
			<stop  offset="0" style="stop-color:#0463EE"/>
			<stop  offset="1" style="stop-color:#FF00E9"/>
		</linearGradient>
		
			<rect x="1268.434" y="1.46" style="clip-path:url(#SVGID_00000011732314956547940060000016707968613323123356_);fill:url(#SVGID_00000005953628625860062660000008286181387102466196_);" width="2732.826" height="6998.54"/>
	</g>
	<g>
		<defs>
			<path id="SVGID_00000142875614638983931360000006516284642985503124_" d="M4001.26,6437.857
				c-114.653,87.438-265.69,172.049-455.825,251.116c-315.104,131.028-511.792,231.354-623.386,311.026h-4.54
				c111.541-80.523,309.177-181.737,626.763-313.797c190.925-79.39,342.335-164.347,456.989-252.115V6437.857z M1433.982,1.46
				c-2.27,14.651-4.506,29.273-7.093,44.219c-196.911,1138.16,200.379,1428.789,628.64,1742.067
				c74.21,54.281,149.344,109.243,222.455,169.379c247.991,203.961,476.553,416.604,556.032,689.993
				c79.493,273.433,9.79,607.402-338.857,1053.776c-347.918,445.448-478.491,759.107-370.961,994.109
				c107.571,235.106,453.491,391.936,1058.514,523.643c351.597,76.542,629.781,190.704,818.549,326.292v3.694
				c-188.451-135.899-466.899-250.357-819.187-327.05c-606.001-131.919-952.585-289.237-1060.61-525.329
				c-108.074-236.195,22.654-550.802,371.327-997.212c347.944-445.477,417.573-778.545,338.347-1051.081
				c-79.24-272.577-307.448-484.851-555.065-688.51c-73.099-60.123-148.177-115.04-222.319-169.277
				c-429.039-313.85-827.058-605.007-629.826-1745.007c2.557-14.77,4.763-29.222,7.01-43.705H1433.982z"/>
		</defs>
		<clipPath id="SVGID_00000047776098520602949680000016795158209996545190_">
			<use xlink:href="#SVGID_00000142875614638983931360000006516284642985503124_"  style="overflow:visible;"/>
		</clipPath>
		
			<linearGradient id="SVGID_00000138562569838015278430000007653864441657550767_" gradientUnits="userSpaceOnUse" x1="3848.5271" y1="6703.9185" x2="1286.8623" y2="57.3689">
			<stop  offset="0" style="stop-color:#0463EE"/>
			<stop  offset="1" style="stop-color:#FF00E9"/>
		</linearGradient>
		
			<rect x="1226.695" y="1.46" style="clip-path:url(#SVGID_00000047776098520602949680000016795158209996545190_);fill:url(#SVGID_00000138562569838015278430000007653864441657550767_);" width="2774.565" height="6998.54"/>
	</g>
	<g>
		<defs>
			<path id="SVGID_00000009552646262726009460000006655944304409877414_" d="M4001.26,6340.253
				c-122.222,123.423-313.91,242.367-582.41,349.193c-329.622,131.151-530.821,231.102-641.115,310.554h-4.457
				c110.181-80.332,312.26-181.171,644.458-313.346c269.686-107.297,461.71-226.762,583.524-350.662V6340.253z M1405.126,1.46
				c-0.789,4.319-1.446,8.511-2.266,12.857c-214.418,1134.988,178.352,1431.703,601.74,1751.541
				c73.326,55.393,147.577,111.481,219.815,172.788c244.822,207.761,470.095,423.901,545.347,698.468
				c75.271,274.624,0.431,607.479-355.049,1048.435c-354.735,440.036-490.128,751.642-386.235,988.266
				c103.945,236.74,447.41,398.878,1050.333,539.891c416.93,97.508,729.126,246.686,909.989,419.834
				c4.227,4.045,8.377,8.107,12.46,12.179v4.247c-4.748-4.769-9.59-9.523-14.537-14.256
				c-180.478-172.782-492.198-321.685-908.595-419.075c-603.893-141.239-948.019-303.873-1052.388-541.602
				c-104.429-237.833,31.134-550.389,386.635-991.375c354.761-440.064,429.511-772.022,354.49-1045.746
				c-75.037-273.776-299.947-489.54-544.391-696.98c-72.106-61.188-146.357-117.284-219.69-172.678
				c-424.156-320.422-817.646-617.675-602.877-1754.499c0.786-4.155,1.405-8.164,2.164-12.296H1405.126z"/>
		</defs>
		<clipPath id="SVGID_00000098194301670510073850000004960002934185716905_">
			<use xlink:href="#SVGID_00000009552646262726009460000006655944304409877414_"  style="overflow:visible;"/>
		</clipPath>
		
			<linearGradient id="SVGID_00000076605733258695929750000010365550407540014209_" gradientUnits="userSpaceOnUse" x1="3830.4351" y1="6710.8896" x2="1268.771" y2="64.3422">
			<stop  offset="0" style="stop-color:#0463EE"/>
			<stop  offset="1" style="stop-color:#FF00E9"/>
		</linearGradient>
		
			<rect x="1185.137" y="1.46" style="clip-path:url(#SVGID_00000098194301670510073850000004960002934185716905_);fill:url(#SVGID_00000076605733258695929750000010365550407540014209_);" width="2816.123" height="6998.54"/>
	</g>
</g>
</svg>
